<?xml version="1.0" encoding="UTF-8" standalone="no"?>
<svg
   width="62.166752mm"
   height="100mm"
   viewBox="0 0 734.25199 1181.1023"
   version="1.1"
   id="svg63"
   sodipodi:docname="mandala.svg"
   inkscape:version="1.2.1 (9c6d41e410, 2022-07-14, custom)"
   xmlns:inkscape="http://www.inkscape.org/namespaces/inkscape"
   xmlns:sodipodi="http://sodipodi.sourceforge.net/DTD/sodipodi-0.dtd"
   xmlns="http://www.w3.org/2000/svg"
   xmlns:svg="http://www.w3.org/2000/svg">
  <defs
     id="defs67" />
  <sodipodi:namedview
     id="namedview65"
     pagecolor="#ffffff"
     bordercolor="#000000"
     borderopacity="0.25"
     inkscape:showpageshadow="2"
     inkscape:pageopacity="0.0"
     inkscape:pagecheckerboard="0"
     inkscape:deskcolor="#d1d1d1"
     inkscape:document-units="in"
     showgrid="false"
     inkscape:zoom="1.4365501"
     inkscape:cx="0.69611216"
     inkscape:cy="167.06692"
     inkscape:window-width="1362"
     inkscape:window-height="729"
     inkscape:window-x="0"
     inkscape:window-y="18"
     inkscape:window-maximized="1"
     inkscape:current-layer="svg63" />
  <path
     id="Selection"
     fill="none"
     stroke="#000000"
     stroke-width="0.982705"
     d="M 0.49090904,1.2709358 C 6.5191728,24.96295 33.70505,-19.476972 16.179789,13.97608 -14.590168,53.654658 88.650777,71.114944 32.898054,48.547635 -9.8759201,24.093614 76.039575,-23.842927 49.247498,19.280229 34.661219,51.563577 95.054783,71.2508 60.060015,36.208546 53.684959,-2.1519273 81.41401,-3.1374423 98.603236,21.045262 c 15.498894,8.102005 43.927384,-9.749858 8.840954,-15.1095498 -3.93158,-13.1534802 37.4569,22.1343498 46.79824,-4.6561784 -8.8081,9.7354722 -11.51341,78.0395562 32.52262,60.6721932 17.15669,-3.366701 -5.4436,-54.6610031 10.10018,-60.5628672 14.63399,1.8517597 37.50817,-3.6608105 47.02519,2.7640207 3.95161,28.3083475 29.00685,-25.1473025 21.19374,9.7974035 -15.95458,75.317959 71.80585,146.784166 141.70478,111.986826 46.62755,-19.57158 76.91555,-75.658853 59.50402,-124.6661742 12.59851,1.3594549 17.32191,22.5224432 26.36036,0.1831796 15.73944,0.3890999 31.58051,-0.9165445 47.3425,0.7995244 8.69587,-0.3127932 -0.98251,85.3008342 0.93971,57.0566092 43.25967,27.561169 52.08214,-47.347208 38.90036,-58.0307152 9.92619,27.5962032 74.95756,-18.3906598 33.51638,12.2273052 -39.34686,1.223207 -16.82105,50.055844 11.46882,16.427118 22.41792,-16.989417 42.07778,-45.042168 50.0313,-3.112698 -5.27187,17.374927 -16.13096,50.683396 6.49199,20.520103 C 697.53417,21.274863 651.34459,-12.455983 696.92348,8.2206537 727.9537,25.574108 702.24885,56.293 679.53989,62.346042 724.28244,74.426153 726.49791,11.743259 704.9236,1.2709358 c 21.1188,1.2224596 17.4834,11.7131912 28.66506,2.7814918 -0.0334,390.1587624 0.0667,780.3301424 -0.0498,1170.4809724 -13.28979,13.9261 6.79141,-41.3104 -13.70198,-8.7406 -23.17578,27.7723 -65.27579,4.7313 -86.9141,-6.3872 -29.8731,-25.5256 -54.2196,13.7163 -87.23101,-2.3168 -24.63274,11.7971 -35.06808,40.2585 -41.5564,-0.4986 -17.02325,9.0955 -42.72231,15.0994 -64.78825,18.8429 -32.66166,20.1575 -61.84311,-16.6464 -92.3951,-1.5511 -25.44648,16.8736 -54.56697,-3.9417 -82.08233,-4.9956 -24.2986,-6.2375 -38.7381,-23.8581 -43.86971,10.6573 -12.37128,-23.9382 -51.83406,-22.1467 -72.31235,-21.4758 -33.56805,-30.2602 -54.911503,21.794 -89.093223,15.824 -28.674709,30.8068 -62.5381713,-45.3201 -57.138139,1.947 -4.4280468,4.517 -0.7709694,-31.0809 -1.96540896,-42.6077 0,-377.32006 0,-754.64016 0,-1131.9602642 z M 407.33068,2.2536398 c -0.55867,17.4488752 52.51997,-22.4971458 41.2736,21.6195052 5.8234,55.166047 -55.05774,106.776785 -107.45624,82.999895 -41.60951,-13.132663 -67.861,-64.940287 -49.37362,-104.5997452 22.47911,-0.599059 33.82252,9.7217942 43.30454,-0.5123549 15.12128,0.5101478 -25.55845,49.1149341 11.73675,59.3174131 46.66884,30.892242 69.87468,-42.732838 50.34384,-59.4604082 3.39038,0.2118984 6.78075,0.4237967 10.17113,0.635695 z M 236.34004,9.1325738 C 175.6138,-23.425681 198.92392,93.242861 234.5417,44.50995 196.31718,42.816758 206.22285,20.895757 236.34004,9.1325738 Z m 62.89312,-4.913525 C 273.67929,24.199733 344.59577,26.458441 317.30731,12.090185 311.33289,9.3694573 305.24853,6.8589264 299.23316,4.2190488 Z m 137.57866,0 c -22.5513,4.1661848 -35.81911,22.2681392 -4.05978,14.6879732 13.19831,1.864173 4.94797,-7.39803 4.05978,-14.6879732 z m 61.9104,47.1698242 c 57.52036,31.353661 40.97446,-82.771975 0,-36.360071 46.15194,4.159385 22.09618,25.873176 0,36.360071 z M 243.21898,44.50995 c 35.61619,-2.483857 -9.00627,-64.250063 0,0 z M 491.84329,16.011507 c -17.13846,-5.393865 -22.52615,32.863152 -3.7122,28.003482 9.73,3.898732 2.06954,-24.167746 3.7122,-28.003482 z M 57.487784,159.4864 C 76.138597,125.30478 70.463212,74.19462 111.14838,52.961206 c 32.9622,2.165973 43.2593,-52.18612506 4.28889,-25.785558 -40.762395,17.850139 -57.831716,60.524785 -64.059548,101.619682 -4.767442,25.46248 -25.373501,44.1879 13.026155,48.96369 31.072245,19.68824 63.155223,45.38209 102.794293,37.63715 33.13296,9.33086 62.70532,-39.48761 21.34121,-26.08893 -38.3133,19.59685 -81.99956,0.84217 -112.461891,-24.75055 -5.474079,-3.38898 -11.940315,-6.37795 -18.589705,-5.07029 z M 322.7591,33.700193 c 0.53206,-10.828288 -37.41927,-18.135844 -29.42218,0.316215 -0.35202,8.455062 23.45951,-1.535528 29.42218,-0.316215 z m 88.50239,0 c 24.89443,12.237749 45.06384,-16.950401 6.25523,-7.701028 -9.06425,-3.573231 -5.59726,3.890431 -6.25523,7.701028 z M 697.22858,164.39992 C 675.60101,132.09048 684.78952,86.37478 655.74861,57.127874 c -6.95867,-31.55321 -72.06404,-18.10319 -28.12655,-1.502039 36.06832,22.459879 31.93456,68.386365 47.98702,101.895155 -33.02537,10.92866 -58.00476,44.35832 -96.30508,40.29089 -23.71254,-8.71485 -43.73642,-3.12555 -17.26059,16.74345 51.81131,11.51211 89.02628,-32.74403 133.77821,-47.48752 z M 323.80077,38.613715 c -26.86319,-6.194246 -38.83454,23.986477 -7.40008,10.329108 6.248,-2.303691 10.63716,-2.545886 7.40008,-10.329108 z m 115.95916,3.930823 c -19.23489,-6.734596 -46.80148,1.0297 -9.82705,11.615569 7.54456,3.950215 10.84507,-6.060876 9.82705,-11.615569 z M 11.30066,45.49265 C -22.999924,65.954741 37.721584,117.85838 38.374176,90.677415 3.1049459,88.315229 18.150965,63.245617 11.30066,45.49265 Z m 131.68243,0.9827 c -46.810076,6.841385 -65.797988,54.01854 -70.278426,95.40021 -3.197334,25.86057 52.303496,48.91677 82.856196,49.58817 33.2213,1.57259 43.26925,-19.61136 42.94628,-48.00894 -2.03686,-39.87627 -42.4867,69.94851 -23.01402,9.38729 22.62949,-25.82939 2.48382,-35.93738 -14.82134,-10.43509 -12.33115,15.1931 -39.02904,24.11377 -10.71824,1.859 18.51002,-12.35118 37.33723,-38.53357 2.05276,-20.81164 -16.63793,8.42518 -69.795749,23.18946 -26.98598,3.4388 24.24412,-7.63525 67.79649,-26.66083 32.43986,-43.299425 -23.1429,-4.353489 -42.83429,-18.047325 -7.59816,-8.12858 54.45305,14.552097 5.64151,-8.096962 -6.87893,-28.989795 z m 120.87269,24.567628 c -2.70684,-43.337819 -37.19278,-3.00793 -5.89953,2.106973 1.96651,-0.702324 3.93302,-1.404649 5.89953,-2.106973 z m 220.12587,4.913523 c 25.33175,-47.257193 -34.66806,-23.264752 0,0 z m 49.13523,59.944979 c 0.8793,35.98235 17.25652,66.78485 59.94499,54.49098 23.23621,-11.11177 84.34776,-22.22017 66.4591,-57.01836 2.71459,-37.762885 -46.94626,-115.812459 -81.90737,-68.965608 -27.90578,0.842384 -16.12468,38.329028 7.1152,31.540038 27.87695,-0.604764 52.34946,8.87206 13.2466,7.3763 -13.05768,-1.0054 -48.63764,-3.01543 -28.49844,6.46619 21.79955,5.99784 86.34783,42.45585 32.7895,21.59241 -21.11618,-11.06908 -63.86618,-22.48467 -25.04312,5.83843 32.2291,29.30262 17.11711,24.12975 -4.79827,3.95675 -34.79742,-34.27878 -16.39407,10.30236 -5.12407,30.4286 -10.38704,4.78248 -17.21104,-45.73037 -34.18412,-35.70573 z M 725.72701,47.458061 c -3.61759,19.034935 -9.96454,40.690021 -32.42925,50.117945 27.38128,4.736654 47.94608,-27.133544 32.42925,-50.117945 z M 328.8224,50.406173 c -51.54711,5.763147 -16.80337,43.330061 0,0 z m 106.02401,10.809758 c -16.66698,-12.560472 -42.31064,-9.162769 -14.9716,6.945941 7.22321,9.16423 12.03211,0.472458 14.9716,-6.945941 z M 237.32275,58.267808 c -63.57409,6.365444 13.82136,81.827182 11.69418,37.028319 -38.10072,1.791629 -10.91053,-19.52673 -11.69418,-37.028319 z m 241.74538,46.187132 c 50.73637,33.44891 47.18962,-69.381198 16.81407,-36.566452 32.69685,27.65905 -11.12049,20.291373 -16.81407,36.566452 z M 334.61052,59.250519 c -26.68495,6.238177 -24.51695,43.850011 -1.85485,12.805868 l 3.84974,-7.892344 z m 89.42614,17.688682 c -15.76628,-16.745908 -38.75665,-19.564594 -13.06015,7.607368 5.60292,5.015174 11.95318,-2.493113 13.06015,-7.607368 z m 75.66826,39.308199 c 33.08926,47.04947 92.76545,-37.994895 33.41687,-53.928387 -16.59352,-3.466874 7.05268,55.953687 -33.41687,53.928387 z M 212.75513,62.198631 C 141.98531,56.958492 190.6305,171.17459 234.37463,116.2474 210.40059,113.81602 197.43932,80.765124 212.75513,62.198631 Z M 46.678031,67.112154 c -28.090237,-1.428541 21.17513,45.425126 1.795456,8.09427 -0.598485,-2.69809 -1.196971,-5.39618 -1.795456,-8.09427 z m 301.690359,2.948112 c -10.43674,-2.836318 -34.64943,24.510609 -13.45294,26.216262 7.77483,-3.129236 9.29306,-18.606004 13.45294,-26.216262 z m 60.92769,21.619505 c -5.61148,-16.699948 -35.02173,-36.614424 -15.44812,-1.965412 1.74197,9.957986 10.04571,7.114245 15.44812,1.965412 z M 696.24587,69.077566 c -23.40673,0.139787 -9.29791,48.832824 -1.42815,7.826015 z m -337.06772,4.913523 c -11.69904,1.370881 -26.47066,33.123281 -4.31635,30.353701 2.07315,-9.080963 2.794,-20.446275 4.31635,-30.353701 z m 33.41195,26.533031 c -1.31594,-13.575657 -21.65334,-42.133267 -16.30392,-12.675028 1.28648,12.203178 -1.50345,21.983238 16.30392,12.675028 z M 372.09088,74.97379 c -26.25077,2.123376 5.95677,58.06581 0,9.827046 0,-3.275682 0,-6.551364 0,-9.827046 z m -106.26969,0.982711 c -39.79749,7.911812 34.40107,55.579359 0,0 z m 215.21234,3.930812 C 448.59342,64.33634 463.28944,131.79655 479.5085,85.307084 Z m -311.51741,3.930823 c -2.70001,-1.118383 1.11838,2.700014 0,0 z M 2.456318,86.766248 c -4.5947287,7.783028 8.19399,6.879708 0,0 z m 730.149632,2.948111 c -12.49242,2.103108 -2.72381,11.146981 0,0 z M 281.54446,100.52412 c -35.13229,17.31497 41.27549,38.39493 3.28592,4.33757 z m 170.99063,0.9827 c -37.38572,25.38326 20.73515,30.42726 4.91353,1.81801 z m 241.74537,17.68868 c 20.07122,-10.05217 -8.74128,-26.29156 0,0 z M 38.816394,104.45494 c -21.208944,0.65201 8.784145,32.64451 0,0 z m -36.360076,4.91352 c -23.294571,42.01537 79.552527,38.12895 20.545132,15.46653 -7.393624,-4.30732 -15.0122636,-8.76404 -20.545132,-15.46653 z m 261.399462,5.89623 c -47.92098,-18.245508 -17.3064,78.53824 17.81152,36.46694 23.064,-35.71738 -41.73428,17.24574 -27.20618,-25.68053 l 4.24038,-6.44669 z m 187.69661,19.65408 c -17.29779,46.50149 78.25995,15.07569 36.14634,-19.45999 -35.35919,-20.943436 17.60293,40.58789 -24.489,28.84237 l -6.45883,-4.27016 z m 281.05356,-25.55031 c -18.92129,12.34009 -66.96093,38.71534 -15.99106,30.80782 16.79579,-2.54297 17.7469,-17.09195 15.99106,-30.80782 z m -409.78789,23.58491 c -15.16982,-19.44546 -47.0281,0.46731 -11.79107,9.7799 9.10788,8.3727 8.50716,-5.63513 11.79107,-9.7799 z m 117.92458,0 c -15.0853,-32.82024 -44.54491,30.94083 -5.99711,3.48845 z m -211.28153,-0.98271 c -38.81908,-0.95022 -36.08014,59.95435 -0.0504,64.49384 27.96183,11.15681 54.49925,-35.1859 16.43082,-35.89836 -8.63509,-6.96066 -14.95975,-17.56747 -16.38046,-28.59548 z m 237.81456,35.37737 c 5.97642,75.09404 113.36449,-10.1795 45.32234,-33.90331 -13.98613,-0.77143 -16.77797,39.20845 -45.32234,33.90331 z M 349.35109,154.57288 c 6.17431,-35.88366 -54.96141,-6.58245 -6.87095,-0.77772 z m 57.97959,-19.65411 c -42.15034,0.42509 -4.22179,37.65613 1.47682,4.79969 l -0.81799,-2.65849 z m -27.51574,20.63681 c 4.69846,-18.30348 -32.28915,-20.34129 -25.55033,0 8.55783,0.69963 17.01169,1.348 25.55033,0 z M 2.456318,142.78042 C -14.770761,168.23003 37.893739,233.45613 26.062,188.68392 7.0336358,175.25895 24.214956,147.26744 2.456318,142.78042 Z M 328.7143,158.50369 c -22.15353,43.1946 -34.40571,-50.84226 -38.99374,5.89623 1.12619,44.22634 77.45313,6.20071 38.99374,-5.89623 z m 64.85851,2.94811 c 5.4529,47.73486 77.8877,10.55059 43.22917,-17.46266 -4.98187,21.67374 -18.16047,35.23421 -36.8336,15.86377 -2.13185,0.53296 -4.26371,1.06593 -6.39557,1.59889 z m 339.03314,-18.67138 c -18.90659,9.62763 -16.62939,44.41513 -29.68738,59.32626 18.55782,13.13407 35.1982,-35.79266 29.68738,-57.01058 z m -22.60221,28.49844 c 21.15666,-30.70605 -35.29039,-27.22652 0,0 z M 37.833688,151.62475 c -40.6967528,-13.29695 1.620772,61.70471 5.105653,24.19181 -27.734174,0.87676 -14.153808,-8.58803 -5.105653,-24.19181 z m 243.710772,10.80976 c -52.43014,46.14253 58.30982,93.49747 54.04877,22.60221 -19.29537,15.8857 -52.06354,2.2336 -54.04877,-22.60221 z m 71.73745,0 c -43.90828,21.98204 42.95889,67.83895 38.79596,13.59449 -9.12614,-43.86607 -21.87498,48.09374 -37.76044,-2.372 l -0.78079,-6.01293 z m 45.20442,22.60221 c -4.62271,72.72998 107.78454,22.65087 55.03147,-21.61951 -4.62016,24.47339 -35.03253,36.62277 -55.03147,21.61951 z m 311.51741,-10.80975 c -45.37567,-8.42109 -5.56896,32.27997 0,0 z m -31.44655,5.89622 c -18.55296,12.39024 14.05663,44.96324 2.6719,67.61853 -4.4366,70.76691 -88.17926,117.93233 -151.43251,87.99154 -33.69158,13.15509 42.55958,32.32757 52.47382,20.20503 35.2234,31.05784 59.01891,-18.30901 94.63707,-14.82226 15.65799,-21.09891 -3.01633,-41.26982 24.47872,-53.51503 6.28488,-30.49243 -15.78458,-51.40446 -6.45468,-82.61783 -2.58252,-10.06001 -9.58926,-17.49731 -16.37432,-24.85998 z m -613.207767,4.91353 c -47.179694,-2.45261 -9.474832,60.47091 -36.560303,83.77865 -0.193443,27.65135 31.002943,35.56524 22.82086,65.49297 18.196403,21.99816 46.717449,4.99578 61.90104,32.18389 29.94334,3.30851 43.21574,-19.25716 73.21963,-7.25144 32.93647,-4.5522 36.08068,-39.31414 0.27362,-17.61682 -68.84614,20.09977 -144.546631,-44.12833 -134.371047,-115.31366 -0.01122,-14.33916 5.823217,-28.89443 12.7162,-41.27359 z M 534.09958,183.0713 c -26.09598,29.10834 23.366,83.14074 -18.47484,116.96644 -13.93846,41.58641 -26.7171,39.70218 -62.28904,26.87291 -49.87442,4.61964 -59.92803,-56.70549 -88.91079,-69.90063 -17.27378,19.51898 26.09785,66.86092 49.99408,76.06833 28.06542,3.17969 75.25807,28.335 91.41187,19.81196 14.58961,-40.58542 56.26959,-73.78791 46.44386,-121.75122 -3.34743,-16.54354 -5.37811,-35.67685 -18.17514,-48.06779 z M 2.397356,189.95024 C -14.108065,223.48448 53.303277,241.76617 17.481873,208.3563 11.409977,203.21468 5.784817,197.24588 2.397356,189.95024 Z m 730.208594,0.98271 c -9.21162,14.44992 -28.95942,21.20729 -28.49844,40.2909 17.65643,-6.24873 34.95102,-18.81708 28.49844,-40.2909 z m -69.77204,4.91352 c -20.21462,13.27508 0.0545,28.73439 0,0 z m -401.92624,0.9827 c -37.63751,0.39355 -65.42111,21.74854 -52.95674,63.77017 13.86752,26.28677 25.06355,82.78655 61.53331,61.18956 48.19135,1.19416 109.93762,-54.95552 58.17825,-92.73898 -24.87512,-26.84946 14.85108,86.54423 -8.82199,24.98606 -7.89577,-44.11567 -19.67858,-15.43699 -18.20157,12.47308 -5.87936,40.72712 -6.98508,1.56437 -6.05336,-16.78841 5.85751,-48.22651 -14.71654,0.40227 -22.07405,19.801 -14.2439,36.23676 -16.1676,10.82564 -2.79883,-10.78207 6.42737,-19.15201 20.59789,-54.93704 -5.49832,-21.95634 -14.38229,19.1055 -41.67513,36.21794 -11.83658,4.26765 15.64901,-22.49143 27.73427,-20.23404 8.52988,-44.22172 z m 147.40571,26.53303 c -28.03302,27.57712 -27.27998,62.91255 10.70073,84.6477 23.70443,2.34794 66.90424,35.41519 80.21248,5.5052 17.18499,-26.04394 36.60413,-55.43513 26.01882,-88.18749 1.53849,-29.03945 -47.94842,-29.45084 -55.08006,-20.40311 9.23165,6.01941 66.61302,38.66745 18.73842,17.33339 -48.85028,-30.28894 -9.09745,19.72207 7.73941,36.4433 -3.76255,8.86974 -65.25315,-71.71724 -36.17766,-13.71948 9.47329,21.79002 20.49983,70.40707 0.86574,23.05838 -7.06744,-21.76954 -29.71347,-66.50389 -22.36647,-15.3697 4.59133,23.50639 -2.98475,49.73465 -5.41671,8.43878 -0.77959,-27.05831 2.20876,-32.71945 -25.2347,-37.74697 z M 72.228358,197.81188 c -9.03498,20.55431 27.659262,12.07286 0,0 z m 270.243802,0.98271 c -48.77486,56.83834 82.13957,72.17348 55.65057,9.55189 -10.25983,-17.90098 -39.95849,18.25052 -55.65057,-9.55189 z m -245.676186,7.86163 c -8.214794,23.86704 25.171626,34.99872 6.869106,5.16903 z m 539.504906,1.96541 c -23.8585,5.43206 -11.30656,49.74292 -0.72321,7.61873 z m -429.44198,2.94811 c -58.58256,17.65764 -4.17672,98.12511 17.57767,130.27012 5.58146,36.53674 54.86594,-8.432 82.88777,-3.85129 32.48373,4.07458 71.61302,-64.93665 42.84037,-59.20603 -18.0793,40.44541 -64.97633,47.62856 -103.13129,56.23796 -21.73931,-11.86933 -61.91946,-77.6112 -41.80205,-118.86615 l 0.93053,-2.62123 z m 437.30362,0 c 8.57344,21.89909 4.69566,42.11267 -13.75786,58.96229 29.93684,-0.30781 38.89864,-45.10922 13.75786,-58.96229 z m -555.228181,1.96541 c -37.957755,9.65082 10.941561,77.23089 7.622103,46.84431 -22.995621,-10.68265 -8.204023,-30.3218 -7.622103,-46.84431 z m 51.287351,8.84435 c -37.36573,-2.18733 30.83446,70.81868 36.25727,31.99497 -18.0386,4.27527 -39.6491,-11.14574 -36.25727,-31.99497 z M 2.466145,221.39679 c -9.8207495,38.81714 57.409686,21.43425 10.037101,7.23885 l -4.2948808,-2.55027 z m 598.457365,0 c -18.50479,1.28055 -13.21811,44.1301 -42.75387,37.1313 0.39854,28.46853 58.28712,-14.8038 42.75387,-37.1313 z m 131.68244,0.98271 c -8.30288,11.36457 -44.13041,11.75926 -22.63982,27.46976 11.44056,-6.39091 27.78206,-10.27968 22.63982,-27.46976 z m -609.08041,4.91352 c -59.235228,33.06012 35.75248,87.83094 38.01839,44.22172 -35.47479,25.98627 -57.08854,-15.66286 -38.01839,-44.22172 z m 486.24232,2.94812 c 8.17562,20.06422 5.54707,66.36755 -32.01038,46.56547 -37.45155,-11.29627 37.00231,38.09658 43.84705,-3.52562 6.89301,-14.91132 2.66251,-34.22189 -11.83667,-43.03985 z m -541.470325,7.86163 c -12.413746,7.23074 -0.218389,13.63849 0,0 z m 599.449895,2.94812 c -6.69216,9.71277 10.3201,11.86357 0,0 z m 56.99688,30.46384 c 26.35223,-20.8666 -30.0409,-10.53067 -3.93082,-0.9827 -14.16293,-17.68286 20.60984,-10.04568 3.93082,0.9827 z M 11.30066,257.75688 c -18.1624055,1.98192 0.0053,25.249 0,0 z m 8.844343,1.9654 c -12.6348774,-4.52804 2.571316,12.90524 0,0 z m -1.96541,5.89623 c -9.2535471,6.25882 3.299667,11.00165 0,0 z m 73.702858,8.84435 c -35.500621,-0.20962 22.276139,66.29322 29.481139,28.49843 -17.05582,12.77687 -42.931642,-11.28071 -29.481139,-28.49843 z m 554.245479,-0.98271 c -7.04271,9.42373 -4.70386,45.60897 -35.02068,34.04104 3.89518,24.24932 56.19325,-11.46632 35.02068,-34.04104 z m -569.96876,3.93082 c -8.268711,-3.73831 1.371181,10.07197 0,0 z m 584.70933,1.96541 c -8.68074,-1.09413 -4.23687,10.69073 0,0 z m 71.73745,0.9827 c -17.26649,-10.19473 -37.53749,22.9632 -11.65314,17.24048 25.90992,3.78957 -3.76612,-6.4357 11.65314,-17.24048 z M 27.023936,297.06506 c 1.611031,-19.10449 -38.775515,-23.05659 -19.3081515,-5.79704 -18.9036275,12.66475 14.0204405,3.87772 19.3081515,5.79704 z M 167.55072,283.30719 c -19.47694,20.22043 53.21067,15.70286 0,0 z m 402.90895,8.69694 c -21.67089,-16.03212 -36.0858,25.7545 -4.14227,2.61884 l 2.35103,-1.48638 z m -435.33821,3.09552 c -30.10133,6.20251 42.29697,51.03163 50.11794,11.0456 -17.45445,3.08467 -42.88122,18.50089 -50.11794,-11.0456 z m 472.68098,0 c -16.58493,15.35022 -35.25481,22.06216 -56.99688,12.77516 12.00212,25.00926 54.73779,13.79001 56.99688,-12.77516 z M 1.689808,325.5635 C 26.586715,326.32083 59.250142,298.32882 12.283365,303.74745 -2.2182786,302.75268 2.2660703,316.49713 1.689808,325.5635 Z M 732.60595,305.90941 c -46.59528,-11.21295 -36.70527,15.36003 -1.25362,20.19936 2.90731,-2.82863 0.42501,-14.322 1.25362,-20.19936 z m -197.52366,19.56565 c 22.36881,4.47838 11.48335,-25.33092 0,0 z M 189.21935,314.75374 c -16.40238,11.83698 28.80539,20.50094 0,0 z m -70.80388,8.84435 c -7.28291,-8.04811 -9.19372,-1.43981 0,0 z m 500.19673,-1.96541 c -6.1242,1.35946 -4.84305,5.54814 0,0 z M 37.833688,322.61539 C 10.377872,325.55004 1.8674153,338.87036 1.473613,358.80884 9.8485616,352.8541 43.288495,337.69502 37.833688,322.61539 Z m 694.772262,38.32549 c -2.37704,-22.93682 -3.64557,-38.32786 -37.34278,-38.32549 -4.80166,17.0658 28.6718,25.55821 37.34278,38.32549 z M 395.53822,329.49432 c -14.96531,-7.22142 -37.88869,22.85954 -53.64241,-1.81845 -21.81123,18.40352 52.48117,30.70559 53.64241,1.81845 z m -240.76267,0 c -13.67541,-0.46373 -6.66739,9.15325 0,0 z m 427.47658,3.93082 c -4.82751,-9.63194 -12.9087,-1.40795 0,0 z m 92.37424,20.6368 c 4.17952,31.11585 72.61258,60.53812 49.82313,10.80975 -17.06352,-15.68328 -31.85351,-37.85038 -49.82313,-10.80975 z M 43.729917,339.32137 c -34.1683209,0.60243 -56.247862,75.65161 -9.516267,46.3898 13.686027,-15.68718 38.356221,-31.17403 9.516267,-46.3898 z m 291.863313,2.94811 c -17.83006,52.68331 76.45607,51.22296 59.94499,0 -14.05486,39.68661 -45.87863,44.7401 -59.94499,0 z m 94.33965,3.93081 c -24.92118,-10.35842 -36.72345,29.2792 -5.32457,5.71643 z m -103.184,4.91354 c -34.95963,-20.36091 -17.04986,18.72674 0.2927,2.3416 z m -105.14941,0 c -31.77345,16.36742 18.59835,37.62773 0,0 z m 291.86332,0 c -20.37481,42.638 33.36398,11.05808 0,0 z m -79.59908,1.9654 c -11.06042,19.56011 -23.74694,39.25753 -51.10066,32.42926 21.44476,23.57797 59.69077,-3.70136 51.10066,-32.42926 z m -170.00793,0.98271 c -31.88349,11.09654 35.9712,64.66985 25.73155,58.74406 1.50471,47.41445 53.78011,23.80698 73.39633,54.36157 27.82382,0.24795 29.45214,-31.61462 59.0059,-20.60179 24.47056,-17.10119 23.8139,-47.41815 52.6851,-61.23433 14.97819,-25.642 -8.09981,-42.58052 -14.34718,-8.97179 -32.46941,54.80652 -115.72226,72.25014 -163.10989,26.11933 -17.0512,-11.39063 -26.97399,-29.38629 -33.36181,-48.41705 z m 28.49844,1.96541 c -35.65477,-5.28968 1.22337,20.93636 0,0 z m 165.0944,0 c -34.00899,-5.60962 -9.52693,20.89173 0,0 z m -389.151085,0.9827 c -7.131177,16.32019 -42.446477,34.0999 -21.774279,50.10074 17.316964,2.33942 39.26294,-47.11566 21.774279,-50.10074 z m 281.053555,32.42926 c -21.18921,-2.90173 -38.86564,-13.12794 -50.11793,-32.42926 -3.24688,26.65448 27.0585,46.68753 50.11793,32.42926 z M 647.0615,357.90432 c -26.7799,19.37238 23.16877,83.46726 12.46684,26.82169 -4.60015,-7.9852 -3.02997,-22.54271 -12.46684,-26.82169 z m 11.8416,1.07114 c -2.03837,21.1868 33.16969,70.69207 34.89953,32.69827 -10.86351,-10.2935 -18.26036,-34.41612 -34.89953,-32.69827 z M 86.998405,358.59221 c -17.433186,12.84968 -17.269644,77.47746 4.490968,35.48546 0.153258,-9.94943 10.313787,-31.82729 -4.490968,-35.48546 z m 157.203285,3.33137 c -46.30253,13.35197 16.88397,29.1228 0,0 z m 263.36487,10.80975 c -28.74096,-32.48159 -22.60673,24.20468 0,0 z m -349.8429,-8.84434 c -19.28856,35.16764 47.69145,73.04999 82.61077,70.7503 16.5087,8.0796 63.59737,-22.09634 27.71381,-17.08848 -44.46291,16.86721 -94.33329,-10.2589 -110.32458,-53.66182 z m 44.22172,0 c -29.49518,9.49704 20.82666,37.64022 39.30819,32.25237 43.14854,-5.70243 -43.20907,-15.85965 -39.30819,-32.25237 z m 376.37592,0 c -15.92438,39.70778 -65.49838,70.16794 -109.82094,54.40993 -46.7137,-3.89497 32.36642,31.11941 49.55398,13.36053 24.27451,-6.17056 80.07705,-39.71467 60.26696,-67.77046 z m -33.41196,4.91352 c -20.23966,-6.38747 -42.10317,21.1059 -61.45013,19.71626 -4.31092,16.33797 44.10201,5.43701 51.5543,-6.50871 l 5.23904,-5.82161 z m 22.60221,-0.9827 c -25.52253,3.48877 -37.14643,35.95032 -66.82392,35.171 -18.83486,-9.56407 -57.34362,8.25763 -16.41348,11.9827 33.48503,3.67734 71.37875,-14.22965 83.2374,-47.1537 z m -296.77683,41.2736 c -20.60704,-16.2971 -53.51614,3.42614 -73.51124,-21.08025 -19.00029,-33.12401 -39.50424,-10.7698 -8.6134,9.05193 21.94877,18.45096 56.08297,25.62711 82.12464,12.02832 z m 360.65264,-38.32549 c -39.24656,8.60998 8.11678,55.79876 2.18284,12.20519 l -1.24942,-6.74012 z m -528.39052,1.78852 c -18.388543,24.07394 23.92394,46.24209 14.41628,6.45637 l -6.68116,-4.20106 z m 35.07273,4.10771 c -34.47879,-2.48762 13.32673,39.95857 0,0 z m 457.94042,0 c -12.38768,45.48281 35.43571,-0.85686 0,0 z m -291.86331,12.77516 c -2.86049,9.38703 7.00804,7.16925 0,0 z m 124.8035,1.96541 c -10.74165,5.56419 -1.61514,10.43375 0,0 z M 2.456318,395.33554 c -0.9305552,52.88476 85.464793,51.78729 122.838092,37.97171 38.53496,-6.34004 40.63174,-47.25221 -0.9827,-33.05819 -15.89503,15.8233 -33.698171,6.48246 -52.806715,15.21596 -9.023182,-14.50921 -38.678712,11.85511 -41.532944,-17.18137 -9.281304,1.4316 -19.015865,1.96436 -27.515733,-2.94811 z m 730.149632,0 c -22.07055,3.79027 -27.50812,5.19971 -43.98694,18.65588 -20.05608,-6.84483 -36.36875,7.67014 -54.16561,-4.71375 -15.63752,3.46494 -60.34759,-28.04757 -54.72062,6.68975 42.95175,33.56799 109.86414,33.51912 151.91012,-1.2726 1.51215,-6.37352 0.79851,-12.89836 0.96305,-19.35928 z m -387.18567,0.9827 c -20.5555,29.86605 62.10436,22.14842 39.29836,1.55268 -6.67855,19.58086 -33.9155,18.35137 -39.29836,-1.55268 z m -8.84435,13.75787 c -6.68624,5.77445 8.44389,2.02164 0,0 z m 60.9277,1.96541 c -7.10716,-3.13519 -7.52443,5.25523 0,0 z M 207.8416,441.52266 c -16.45045,-16.39701 -46.52498,-2.19744 -13.72224,1.19522 l 8.13204,-0.24982 z M 554.73639,429.7302 c -47.4281,6.45938 -13.0141,22.84616 0.55605,7.22857 -0.18535,-2.40952 -0.3707,-4.81905 -0.55605,-7.22857 z m -105.14941,5.89624 c -27.69691,27.15756 38.18837,21.20567 0,0 z m -167.08929,2.4371 c -33.19948,20.93669 28.56518,18.02187 0,0 z m -17.65921,5.42453 c -41.27549,-3.79039 -8.59807,50.4544 4.25472,68.35678 43.0505,61.00337 142.60587,66.25559 189.67225,7.58665 23.93001,-12.30741 45.28065,-94.39691 10.41835,-69.4344 -15.89211,24.06552 -26.60699,56.25004 -50.56185,68.17653 -12.34007,23.1173 -35.49515,7.81669 -51.33711,26.58585 -19.99015,-15.19348 -45.96341,-11.30402 -57.7382,-32.41574 -22.16343,-13.01748 -33.25394,-44.80086 -44.70816,-68.85567 z m -96.30506,1.96541 c -23.99505,4.892 13.84872,40.7722 2.04847,7.68598 z m 406.83977,3.93083 c -22.50977,-13.30078 -10.4719,47.63376 0,0 z m -360.65265,9.82704 c 1.71302,-16.25586 -34.88819,-14.47209 -35.00733,-5.2591 -4.5696,18.22313 25.35348,1.91873 35.00733,5.2591 z m 340.01585,-10.80976 c -11.19975,-0.60192 -47.72493,-2.98656 -27.92474,11.29708 13.98856,-1.58845 34.06856,12.94654 27.92474,-11.29708 z m -239.77996,8.84435 c -31.02156,-22.06814 -38.41815,45.59159 -8.53971,10.80975 l 4.51676,-5.13955 z m 104.16671,0 c 26.95394,56.96756 53.68243,-16.62166 0,0 z m -265.33029,-3.93082 c -29.2201,13.47477 36.7736,56.70766 8.97872,13.66328 -2.99291,-4.55443 -5.98581,-9.10885 -8.97872,-13.66328 z m 427.47657,0 c -11.51181,10.89775 -28.37837,47.9099 -3.23847,28.85159 1.56485,-9.70255 21.35094,-26.65191 3.23847,-28.85159 z m -564.072532,6.87893 c -27.849944,-6.4856 -14.5716884,64.70609 -5.342764,14.51755 1.883189,-4.80158 3.595811,-9.66551 5.342764,-14.51755 z m 709.512832,-3.93082 c -19.84848,4.28765 3.21795,27.82719 5.31504,40.99284 0.21097,-8.49645 2.74245,-29.69782 -5.31504,-40.99284 z m -398.97814,1.58215 c -28.18627,6.72542 -35.39846,72.18267 -3.71093,30.86431 0.64684,-6.58367 21.87267,-32.14384 3.71093,-30.86431 z m 73.85028,0.11794 c -12.96581,26.12982 49.35099,68.66689 26.77562,21.27831 -6.20309,-9.36199 -15.17833,-19.33614 -26.77562,-21.27831 z m -258.59877,40.55622 c 21.54935,-3.68245 1.91604,-26.05079 -4.26494,-36.6942 -20.60756,-0.99775 4.0061,26.72206 4.26494,36.6942 z m 461.87124,-34.39466 c -31.90157,-8.89923 -22.05138,61.96702 -7.06359,18.71349 2.24467,-6.28025 4.57545,-12.52527 7.06359,-18.71349 z M 21.127708,505.39847 c 6.891848,-11.86867 12.52847,-59.65277 -2.932335,-32.82462 -1.975396,11.39703 -20.0135554,31.55721 2.932335,32.82462 z m 705.582012,-4.91352 c -2.45075,-19.88078 -28.7938,-55.22168 -19.04596,-16.51841 4.11651,10.38718 1.36625,29.06479 19.04596,16.51841 z M 215.70325,464.12488 c -19.44628,-6.61471 -52.99342,20.57472 -19.77457,15.9439 10.64737,-3.51039 26.26041,0.60853 19.77457,-15.9439 z m 304.63847,0 c -13.15391,22.44313 55.04097,19.03935 26.53303,3.26257 -8.94398,-0.40495 -17.53118,-3.04979 -26.53303,-3.26257 z m -396.03001,0.9827 c -19.96822,2.3881 0.92517,27.46243 0.9827,40.29089 22.71967,-2.82201 0.32889,-27.92605 -0.9827,-40.29089 z m 487.42156,0 c -10.1732,10.72905 -20.04196,51.26454 0.40097,33.92002 0.36418,-10.40253 13.4489,-28.67429 -0.40097,-33.92002 z M 46.678031,469.0384 c -29.365244,-5.5274 -14.346482,72.2286 -3.29017,22.99156 1.096723,-7.66386 2.193447,-15.32771 3.29017,-22.99156 z m 661.360299,37.34277 c -2.47276,-12.15687 -14.37534,-58.15481 -18.9649,-26.49617 4.93465,9.86973 -1.86264,38.74687 18.9649,26.49617 z M 392.5901,468.05569 c -9.69483,12.17778 -7.61409,55.80739 12.58968,56.38514 15.54274,-15.5879 -5.24605,-41.00269 -12.58968,-56.38514 z m -49.86244,1.84749 c -37.70266,18.38605 -3.86363,85.65289 2.41292,30.27943 -2.35715,-9.25957 10.06193,-26.24476 -2.41292,-30.27943 z M 60.435899,511.2947 c 2.191262,-11.9221 2.164415,-55.99141 -10.052616,-33.01707 1.299583,14.27634 -15.73441,38.15602 10.052616,33.01707 z m 57.979571,-3.93082 c 2.15713,-26.26245 -25.446733,-53.65388 -16.02765,-12.7515 0.20666,9.99969 3.62279,18.56536 16.02765,12.7515 z m 511.00648,1.96542 c 5.83037,-13.55539 5.27468,-57.6766 -7.54317,-28.49746 -0.69606,13.8635 -15.97368,29.24648 7.54317,28.49746 z M 682.488,470.0211 c -17.99338,1.57303 -7.37429,27.95734 -7.9819,40.32909 22.67139,7.43301 8.40483,-20.28691 8.77793,-33.50606 -0.26535,-2.27434 -0.53069,-4.54869 -0.79603,-6.82303 z m -119.88998,0.98271 c -2.70001,-1.11838 1.11838,2.70001 0,0 z m -484.473439,2.94811 c -17.829614,-9.09221 -14.637526,34.03341 -5.404873,38.38198 12.894403,-3.43602 3.054595,-27.87488 5.404873,-38.38198 z M 99.744086,510.312 c -0.35289,-12.35331 -9.085668,-54.35569 -16.27862,-29.00927 3.233103,13.61852 -6.729345,37.28293 16.27862,29.00927 z M 651.04145,472.96921 c -21.28739,-4.66263 -9.32866,44.94933 -12.94885,37.54096 20.38068,7.36779 8.15491,-26.3346 12.94885,-37.54096 z m 15.7626,-0.9827 c -18.52377,-4.78467 -15.92066,53.53324 1.74183,36.56767 -0.61477,-12.2053 -2.47328,-24.28412 -1.74183,-36.56767 z m -309.59132,2.94811 c -14.31699,20.90416 2.1488,91.63362 24.46935,46.18712 -1.96653,-20.85479 8.1854,-53.53844 -24.46935,-46.18712 z M 221.59947,490.6579 c 0.14405,-16.79595 -38.10324,-5.37799 -36.15002,3.86694 4.3991,13.23407 26.71304,-3.38376 36.15002,-3.86694 z m 329.20609,-2.94811 c -9.9783,-3.88185 -51.46393,-10.31774 -30.74836,5.09302 13.80185,3.00952 31.08381,17.26897 30.74836,-5.09302 z m -374.41051,4.91352 C 123.9693,524.15862 58.815024,528.03844 1.473613,508.34658 c -10.4063474,32.1137 25.647994,30.84276 48.781642,31.92196 40.12376,0.37057 84.723495,-1.11015 117.295465,-27.00843 6.90916,48.08122 43.56781,87.49611 80.61334,116.4996 38.82278,27.1673 95.42339,33.34215 118.87572,79.05865 32.68883,-57.40634 112.11958,-55.30999 151.08151,-107.18177 24.90349,-22.32242 43.65356,-67.58707 53.29851,-85.46077 37.87944,25.58876 87.83892,27.23 132.27242,22.38039 19.14742,-0.89918 35.73187,-6.64748 28.91373,-28.87664 -47.77823,13.51008 -108.42659,17.31038 -156.39608,-7.84617 -33.1515,-23.18224 -27.48874,54.79621 -56.85796,69.16913 -61.00146,75.83982 -179.86275,96.25558 -260.25615,39.45389 -40.17331,-27.51141 -72.75811,-69.5429 -82.70071,-117.83311 z m 48.15253,2.94812 c -37.08104,-0.36491 -39.84842,33.91366 -5.90108,14.06759 10.24012,-3.25045 11.07702,-4.29585 5.90108,-14.06759 z m 320.36176,10.80974 c -11.59169,-5.00053 -51.96143,-17.2873 -29.85328,2.89677 11.3002,2.38762 28.76726,20.37999 29.85328,-2.89677 z m -313.48282,2.94813 c -14.11165,3.49423 -51.69518,23.98919 -19.65409,23.81092 7.46476,-6.79308 30.01011,-9.67035 19.65409,-23.81092 z m 273.2902,2.0735 c -17.70805,14.36437 49.04765,35.83985 25.07135,10.01053 -8.0925,-3.87536 -16.20593,-8.24932 -25.07135,-10.01053 z m -265.42857,11.68435 c -12.94386,5.17593 -49.38076,24.80172 -19.65409,27.16197 6.83072,-8.11579 32.84155,-14.29141 19.65409,-27.16197 z m 288.91521,18.6714 c -14.01829,-12.82948 -57.13105,-21.99935 -22.1454,2.16962 8.01981,8.11558 19.03564,13.47544 22.1454,-2.16962 z m 204.40259,-0.9827 c -51.32725,17.49887 -107.55532,10.3393 -157.23276,-8.84435 -26.00185,62.02702 -77.49871,112.91557 -142.07946,133.38252 -36.02834,6.23549 -68.74154,70.40992 -68.73451,62.4859 C 345.6492,662.74431 265.32034,665.45629 224.47456,622.11691 184.19792,607.8669 181.96424,527.21442 140.2807,538.6829 95.342542,552.51048 46.501147,555.76573 1.473613,540.77585 c 0,144.78517 0,289.57033 0,434.3555 51.29676,-17.71927 106.584327,-9.00931 157.026387,7.22288 28.06869,-57.49273 74.36634,-109.69264 137.15076,-130.00608 36.81837,-4.35719 64.08426,-55.88005 75.07877,-66.03338 12.07129,54.74392 73.71521,64.19011 114.84463,88.76374 40.4936,25.7466 70.39332,65.43778 89.79903,108.89719 49.68561,-19.24335 105.87936,-26.32858 157.23276,-8.84435 0,-144.78517 0,-289.57033 0,-434.3555 z m -477.59452,3.93081 c -12.25666,-21.1913 -56.44311,32.94604 -21.29126,19.01007 7.09708,-6.33669 14.19417,-12.67338 21.29126,-19.01007 z m 251.57243,24.56763 c 30.67801,-21.56877 -58.72163,-43.99607 -9.60103,-9.73862 l 5.41501,5.01119 z M 476.12,547.65478 c -18.21875,10.04389 30.46834,51.35756 24.26544,22.05926 -8.55388,-6.85655 -16.50229,-14.32827 -24.26544,-22.05926 z m -237.81455,36.36008 c 24.04629,-11.19747 31.57459,-51.03869 3.22832,-20.77555 -7.92276,6.33031 -15.61726,12.24281 -3.22832,20.77555 z m 17.68869,11.79245 c 11.28935,-8.56613 30.55692,-48.90771 6.30267,-29.08401 -5.26369,10.19572 -31.68101,23.03065 -6.30267,29.08401 z m 233.88373,-9.82704 c -6.79692,-7.83068 -32.03118,-37.70324 -30.32617,-17.97354 9.65741,7.71198 16.56533,44.34726 30.32617,17.97354 z m -207.3507,-18.6714 c -14.06528,11.28899 -29.51149,55.1163 -3.84237,27.51573 2.91288,-7.31995 20.88809,-23.84072 3.84237,-27.51573 z m 170.00792,0 c -28.75218,8.51764 39.46854,64.35265 12.10017,17.88354 -4.46743,-5.61751 -9.67403,-10.94887 -12.10017,-17.88354 z M 289.4061,616.44411 c 8.65861,-10.92971 20.7642,-56.0935 1.58834,-31.48601 -3.48358,12.56126 -25.91363,29.23718 -1.58834,31.48601 z m 168.04252,-4.91353 c -3.80792,-31.1276 -39.05858,-46.9454 -18.61939,-9.96227 5.00271,11.13411 5.25426,18.97541 18.61939,9.96227 z m -150.35383,12.77517 c 9.23866,-13.38737 13.04001,-60.98936 -2.44878,-29.4387 -2.80908,12.59912 -20.14277,27.45335 2.44878,29.4387 z m 116.94187,-42.25631 c -18.8692,3.97404 3.71035,28.92626 3.87185,42.08139 22.4324,-2.15181 1.01451,-24.14129 -1.53899,-36.73897 -0.77762,-1.78081 -1.55524,-3.56161 -2.33286,-5.34242 z m -89.42614,5.89623 c -18.63003,-6.51767 -13.89012,26.19427 -22.34355,37.5388 19.69077,13.67269 16.79579,-15.66494 20.72732,-29.05359 0.53874,-2.8284 1.07749,-5.65681 1.61623,-8.48521 z m 74.68556,-1.9654 c -16.98601,0.24211 -4.35935,52.64761 12.77517,40.29088 -4.55225,-13.34221 -9.00839,-26.70096 -12.77517,-40.29088 z m -58.96228,4.91352 c -18.67705,-6.81836 -11.60465,25.59828 -18.03854,37.20825 14.09844,17.14599 16.68415,-14.67928 16.98019,-28.10647 0.35279,-3.03392 0.70557,-6.06785 1.05835,-9.10178 z m 44.22171,-1.96541 c -17.8069,-1.90851 -9.66149,53.20789 7.27202,41.04757 -0.34348,-13.80626 -5.02332,-27.38848 -7.27202,-41.04757 z m -29.48114,3.95047 c -17.89784,-0.48922 -8.74015,28.49867 -13.75787,41.25395 23.77075,6.2045 10.25786,-24.87464 13.75787,-38.94088 z m 13.75787,-1.00236 c -15.06198,-0.45938 -9.93888,52.31267 3.75895,39.48013 -0.50059,-13.23879 -2.00842,-26.35636 -3.75895,-39.48013 z m -10.80976,215.21235 c -34.2016,57.61514 -113.87903,56.02765 -153.35647,108.79991 -24.39317,21.50794 -41.96825,66.36522 -51.5777,83.87257 -31.4142,-22.16537 -72.889575,-24.31574 -110.422835,-24.41996 -22.278169,2.32923 -61.3847763,-1.71436 -51.191862,30.88624 19.775027,-2.1835 46.422788,-13.2824 69.269631,-10.91764 37.207946,-1.41143 73.436596,10.05064 105.651806,27.97394 22.51606,-107.49518 147.93885,-179.28454 251.78843,-140.39655 63.48012,20.84069 115.33147,75.00795 130.48373,140.39655 51.77712,-31.85449 117.19817,-35.39686 173.93874,-15.7233 6.04472,-21.29238 -6.59208,-29.7689 -26.68513,-29.82254 -46.96721,-5.78365 -99.9313,-3.45094 -139.39197,24.90904 -5.60327,-45.94203 -40.72493,-83.29703 -74.64943,-112.43783 -39.5187,-30.59841 -99.82702,-34.67078 -123.85694,-83.12043 z m -2.94811,74.68556 c -23.18254,-6.33218 -9.10204,22.49359 -9.44062,35.89541 14.16827,18.09851 8.47504,-22.6611 9.44062,-33.58235 z m 17.68868,0 c -19.62195,-7.55346 -13.97282,57.075 -3.25317,36.73475 1.79597,-12.18849 2.60038,-24.44077 3.25317,-36.73475 z m -37.34277,0.9827 c -24.32372,-3.02973 -6.05121,23.94368 -6.29165,37.71881 13.21933,19.83741 10.69418,-17.62385 7.35,-28.61702 -0.35279,-3.03393 -0.70557,-6.06786 -1.05835,-9.10179 z m 49.13523,44.22172 c 11.80003,-19.49814 0.23167,-68.45373 -7.5521,-23.8116 0.0399,9.31784 -9.01914,26.01964 7.5521,23.8116 z m -67.80663,-40.2909 c -25.67034,-2.26856 -5.87889,21.56184 -4.27414,35.51103 14.51898,22.28416 10.71364,-15.48436 5.89037,-27.02583 -0.53874,-2.8284 -1.07749,-5.6568 -1.61623,-8.4852 z m 95.32237,2.94811 c -17.64602,-12.30691 -29.17423,39.91374 -12.77517,40.2909 3.76598,-13.59074 8.22532,-26.94657 12.77517,-40.2909 z m -114.97646,1.96541 c -24.52713,2.82566 0.18196,26.61621 2.33612,40.80283 19.71356,3.70387 -1.69576,-31.13415 -2.33612,-40.80283 z m 132.66514,4.91353 c -18.49985,-14.02456 -16.54348,18.17045 -23.13284,29.61206 5.32671,20.70068 16.77941,-13.17934 20.56875,-23.22999 0.8547,-2.12736 1.70939,-4.25471 2.56409,-6.38207 z m -150.35383,2.94811 c -25.06679,3.08437 2.36145,25.57136 5.74188,39.17007 21.20064,5.42801 -4.53937,-30.55536 -5.74188,-39.17007 z m 168.04252,4.91352 c -17.29515,-14.72637 -26.76046,25.69768 -23.53578,34.81723 12.5016,-1.24071 17.5218,-25.09077 23.53578,-34.81723 z m -174.92145,44.22172 c 27.22822,-17.96473 -41.45945,-58.17395 -11.68952,-16.91668 4.06655,5.51455 7.76846,11.29724 11.68952,16.91668 z m 170.00792,0 c 20.5932,-14.12289 22.87894,-60.66754 -0.12775,-21.6195 -3.92649,9.46223 -16.84265,18.20182 0.12775,21.6195 z M 255.99414,920.09988 c -28.38088,2.57953 20.44911,51.86617 19.44174,27.38875 -5.91651,-9.5009 -13.00716,-18.23464 -19.44174,-27.38875 z m 233.88373,9.82705 c -8.78395,-25.1543 -36.75108,19.43526 -28.52207,25.25471 10.8462,-1.54398 19.68314,-17.89065 28.52207,-25.25471 z m -251.57242,1.96541 c -25.01929,15.43924 46.33625,51.98771 17.67189,17.59876 -5.99059,-5.80783 -10.08963,-13.53116 -17.67189,-17.59876 z M 476.12,968.25242 c 11.22185,-7.41968 41.18489,-39.74212 12.41157,-29.7563 -4.6081,8.75244 -27.99847,20.63903 -12.41157,29.7563 z M 227.49571,946.63291 c -31.48648,11.49093 41.33546,45.22867 21.29126,19.01007 -7.09708,-6.33669 -14.19417,-12.67338 -21.29126,-19.01007 z m 257.46864,32.42926 c 30.26702,-4.30335 38.07598,-49.98918 6.31603,-17.7974 -4.6883,4.33353 -16.47258,11.14066 -6.31603,17.7974 z m 4.91352,90.40883 c -2.13295,-79.20957 -93.4621,-138.33822 -166.43502,-106.19813 -43.67735,16.52818 -76.84314,59.15013 -79.24116,106.19813 33.8361,13.1754 31.41378,-38.3542 48.36872,-49.1352 13.14322,-17.8575 25.12389,-28.83632 45.97093,-37.13645 12.73236,3.68706 38.02241,-29.25166 49.13523,3.72446 27.21647,-11.16975 34.66141,20.52739 53.19382,29.48119 10.59937,17.5295 20.09175,38.933 32.10411,55.6015 5.63446,-0.8452 11.26891,-1.6903 16.90337,-2.5355 z M 239.28815,992.82003 c 16.79646,-23.15508 -54.05636,-38.06259 -22.66181,-12.36099 7.55393,4.12033 15.10787,8.24066 22.66181,12.36099 z m 288.91521,-18.67139 c -12.06441,-32.96902 -60.48897,38.11576 -14.74057,7.85181 4.91352,-2.61727 9.82705,-5.23454 14.74057,-7.85181 z m -150.35383,65.84126 c 3.35043,-19.4978 13.96416,-53.98737 -10.7643,-61.3724 -21.31107,4.71175 -17.78339,64.7313 -0.0713,59.601 z m -146.42301,-33.412 c 14.04615,-23.6478 -55.46738,-32.34232 -24.27588,-11.09755 8.09196,3.69918 16.18392,7.39835 24.27588,11.09755 z m 297.67111,-26.69026 c -28.84283,4.90886 -38.4782,38.12926 -1.17557,15.59676 10.64501,1.80647 10.10376,-16.81803 1.17557,-15.59676 z M 392.5901,1047.8515 c 16.68048,-12.7065 27.76378,-76.66729 -2.30444,-47.3406 1.9887,14.5262 -10.44784,38.0477 2.30444,47.3406 z m -61.91039,-55.46386 c -26.6188,20.63986 31.59516,84.91146 14.54525,24.74086 -0.68251,-10.3314 2.05362,-28.25559 -14.54525,-24.74086 z m -102.2013,18.12106 c -16.35286,-15.80005 -60.07627,-8.5517 -19.6541,4.8349 11.08531,4.1377 17.07118,9.3277 19.6541,-4.8349 z m 316.43093,-0.9827 c 0.56414,-32.48212 -61.2541,16.061 -24.76661,7.4633 8.31795,-2.281 16.54907,-4.8362 24.76661,-7.4633 z m -466.784759,32.4293 c 12.151135,-23.68 -13.977942,-56.70154 -11.383588,-17.5452 2.337404,10.142 -5.967203,25.6153 11.383588,17.5452 z m 588.640149,1.9653 c 0.79726,-12.9643 5.31297,-55.78012 -11.58485,-32.3616 4.12605,10.0677 -7.14433,36.2753 11.58485,32.3616 z M 60.435899,1004.6125 c -25.318754,-5.63879 -8.571145,22.7023 -9.504722,36.761 15.975318,16.5429 8.656384,-27.2133 9.504722,-36.761 z m 39.308187,0.9827 c -23.881345,-8.94069 -12.912942,21.3362 -16.592465,35.1292 16.848739,11.9554 11.809535,-24.6443 16.592465,-35.1292 z m 549.331954,-0.9827 c -24.64433,-4.4687 -6.54643,25.1639 -7.86163,39.3081 19.25246,3.5275 4.10342,-28.474 7.86163,-39.3081 z m 39.3082,0.9827 c -21.37339,-8.01377 -14.87753,20.0946 -15.13464,33.2 12.46803,21.0901 10.761,-17.0771 14.30285,-26.9223 0.27726,-2.0926 0.55453,-4.1851 0.83179,-6.2777 z m -641.706209,41.2736 c 3.741374,-18.8466 -18.988973,-62.36086 -16.632278,-23.0751 5.959401,8.1705 0.419375,30.5947 16.632278,23.0751 z m 71.737439,-38.3255 c -25.33166,-14.36891 -21.032853,63.9255 -5.97484,25.5503 1.88494,-8.5489 5.32265,-16.7509 5.97484,-25.5503 z m 511.00648,-1.9654 c -25.0763,-1.9559 -5.20154,24.3045 -5.21155,38.083 21.30329,7.902 2.99231,-28.4175 5.21155,-38.083 z m 78.61638,2.9481 c -30.65361,-12.50352 -15.76893,70.3391 -5.66487,20.4045 1.65028,-6.865 3.78131,-13.6018 5.66487,-20.4045 z m -686.910622,0.9827 c -28.596161,-1.679 11.578388,70.664 7.448902,27.5157 -2.482967,-9.1719 -4.965935,-18.3438 -7.448902,-27.5157 z m 103.184002,40.2909 c 12.57803,-13.9562 9.76053,-58.61011 -3.08904,-26.9928 -0.43685,9.9367 -15.43729,27.392 3.08904,26.9928 z m 602.39801,-35.3773 c -28.52535,-16.77296 -23.81183,70.8852 -7.15497,18.7375 2.38499,-6.2458 4.76998,-12.4917 7.15497,-18.7375 z m -420.57799,-3.3412 c -27.09577,19.6061 50.68269,74.3472 21.4434,21.6921 -4.44111,-8.9259 -10.09565,-20.9961 -21.4434,-21.6921 z m 121.82592,-0.069 c -26.65317,6.0022 -39.41522,72.9555 -3.78096,30.6542 5.36926,-7.231 19.08875,-25.6022 3.78096,-30.6542 z m 182.79291,-0.5209 c -25.74319,-0.1285 -2.55617,24.0345 -0.65204,37.6315 17.70878,2.4 0.70814,-27.815 0.65204,-37.6315 z m -389.15109,13.7579 c -16.99534,-14.4577 -56.08852,-1.8919 -21.10478,5.8188 8.73413,1.0254 21.26482,8.8882 21.10478,-5.8188 z m 326.25798,-9.8271 c -42.54331,1.5934 -38.68158,28.1157 -3.49448,14.0365 11.54649,0.9748 3.49182,-7.4528 3.49448,-14.0365 z m -545.401132,1.9655 c -15.135572,28.4743 24.787067,57.4666 7.599667,19.0825 -2.3522253,-6.4332 -4.9714864,-12.7587 -7.599667,-19.0825 z m 126.768912,34.3946 c 15.20111,8.5741 24.87187,-22.1921 22.59934,-30.1615 -14.7304,-13.5024 -15.92783,22.0509 -22.59934,30.1615 z m 462.85394,-34.3946 c -35.58954,2.9535 24.60997,60.8243 7.40236,20.3232 -2.46745,-6.7744 -4.93491,-13.5488 -7.40236,-20.3232 z m 140.52678,0 c -1.88425,12.7821 -24.30246,35.829 -7.97561,41.4244 11.98818,-6.237 6.1788,-28.4683 7.97561,-41.4244 z m -578.8131,45.2044 c 20.18019,-14.7226 16.33244,-57.9383 -3.20363,-16.873 -5.69396,9.4685 -9.00393,13.9559 3.20363,16.873 z m 420.59763,-36.3601 c -23.68735,-1.3121 2.3865,44.4104 15.72328,32.4292 -5.24109,-10.8097 -10.48219,-21.6195 -15.72328,-32.4292 z m -357.70453,13.7579 c -18.17434,-10.6016 -55.91781,-1.948 -21.05039,9.7176 10.93858,0.5691 24.70541,7.9514 21.05039,-9.7176 z m 335.10233,-5.8963 c -29.10657,-4.3336 -45.64231,26.0758 -9.04469,14.5054 14.1505,-0.2075 11.02928,-2.5711 9.04469,-14.5054 z m -236.83185,24.5676 c -12.8792,-40.7212 -51.53593,-5.2757 -10.98542,3.7011 3.29403,-2.3124 7.25472,-2.668 10.98542,-3.7011 z m 104.16671,0 c 28.88187,21.6589 41.04439,-44.2105 8.4316,-11.7826 l -4.40743,5.777 z m 143.47488,-14.7406 c -2.70004,-1.1184 1.11847,2.7003 0,0 z m -391.11649,1.9655 c -29.18871,22.5495 6.93788,38.502 0,0 z m 392.0992,0 c -7.79955,35.0825 27.05347,27.8915 0,0 z m -169.02522,25.5503 c -20.33823,-52.8014 -51.38615,9.0896 -83.52991,-2.2012 -27.12091,15.148 -14.88977,47.8788 -48.42001,55.8658 -22.26929,26.1415 4.24876,57.0049 12.9952,11.0941 31.35185,-46.1716 99.08742,-66.3601 147.23266,-33.0173 27.96143,3.7749 58.09327,93.3745 54.20661,32.9389 -17.9365,-21.5961 -36.19506,-34.3736 -46.21291,-61.6044 -10.02679,-9.2357 -24.65037,-7.776 -36.27164,-3.0759 z m -179.83497,-14.7405 c -13.37608,2.4449 -40.64096,-13.9678 -35.31978,9.9458 9.38088,-0.8541 36.15248,7.9866 35.31978,-9.9458 z m 340.01585,-3.9309 c -10.62461,3.3817 -43.35008,-0.7104 -30.601,14.7406 13.95447,-3.3289 37.6876,10.0756 30.601,-14.7406 z m -276.10073,8.4611 c -21.67073,28.3702 35.21657,8.8256 0,0 z m 169.96862,19.0546 c 40.45925,-18.4749 -24.15601,-29.739 0,0 z m -240.76268,-6.8789 c -21.90318,-10.4193 -44.71628,19.3345 -11.79246,5.9355 l 6.13946,-2.367 z m 347.8775,0 c -33.76416,-3.397 -30.66455,7.8052 -0.76938,10.0019 0.25646,-3.334 0.51292,-6.6679 0.76938,-10.0019 z m -396.03003,29.4812 c -43.59525,-36.3401 -112.965088,-38.8291 -157.24258,-2.4962 -9.2761424,26.4924 10.313179,15.0843 27.525561,17.2367 10.61839,-23.5297 38.597237,-12.7784 57.980039,-15.2774 11.289467,11.5125 29.83143,-0.8608 42.65507,11.8048 19.36161,5.7179 20.54134,6.9516 29.08191,-11.2679 z m 572.91688,17.6885 c 5.49408,-33.5965 -38.6553,-40.1632 -63.70918,-45.0078 -28.30609,-1.9408 -87.63099,4.4093 -89.11123,35.2201 30.18643,15.6338 66.38624,-22.0574 96.52494,-6.1283 30.61439,-9.1156 21.56043,20.3322 56.29547,15.916 z m -451.06149,-30.4638 c -48.6265,-23.1645 -115.86573,1.9522 -131.7979,54.2698 18.93679,9.2662 36.60249,-54.1085 73.50017,-49.1167 17.23277,-14.1627 60.90802,22.1609 58.29773,-5.1531 z m 296.77684,61.9104 c 14.44897,-44.809 -63.79824,-82.0061 -105.06649,-68.2573 -30.43568,1.2497 -22.47317,29.5746 3.72675,11.379 43.10906,-9.1534 85.8377,19.4382 101.33974,56.8783 z m -232.90102,-32.4292 c 6.86324,-41.6576 68.23865,22.657 32.42925,-18.5535 -10.83703,-10.568 -49.33739,6.7318 -32.42925,18.5535 z m -74.68556,-13.7578 c -33.5532,-20.1593 -104.89023,10.3206 -95.18725,41.2992 24.67525,-34.6695 61.84638,-27.3591 95.18725,-41.2992 z m 296.77683,42.2562 c -5.94274,-40.9636 -92.60466,-63.3735 -97.99233,-35.6604 30.7698,-1.9895 68.24356,8.5647 89.9061,34.4793 2.69541,0.3937 5.39082,0.7874 8.08623,1.1811 z M 397.50363,1102.883 c -7.45274,-3.8339 -6.2808,3.2563 0,0 z m -57.97959,0 c -8.34326,-2.6059 -4.83363,7.4602 0,0 z m -262.362503,3.4688 c -20.057718,14.8173 23.290633,82.3982 16.018081,26.9949 -1.361403,-8.9131 -3.327247,-27.8188 -16.018081,-26.9949 z m 576.828043,-0.079 c -28.36204,15.4375 -3.86618,83.3225 5.67634,24.4127 1.13027,-6.7231 7.02959,-25.2077 -5.67634,-24.4127 z m -577.83041,50.6583 c 6.889721,-24.1346 -40.345529,-71.7403 -33.758361,-29.3731 13.155543,6.3231 17.449098,36.6976 33.758361,29.3731 z m 582.74393,0 c 15.03262,0.6594 53.89238,-45.5871 23.5849,-47.2779 -16.93101,9.5566 -18.78392,30.4487 -23.5849,47.2779 z m -552.26042,-43.7989 c -26.023118,19.8499 17.08099,48.6793 11.15215,6.9732 -0.75762,-5.0389 -6.35609,-8.1898 -11.15215,-6.9732 z m 524.74468,32.0066 c 18.8639,-28.1621 -24.40429,-45.7118 -13.45323,-8.068 l 5.98959,4.362 z m -206.368,-26.5326 c 0.56647,10.2605 9.58196,5.4221 0,0 z m -170.99063,1.9653 c -24.06993,-2.8967 -54.4306,1.409 -63.87581,27.5158 20.34086,6.3685 39.46022,-21.2833 61.41782,-22.1256 z m 290.88061,26.533 c -8.27649,-23.5568 -48.73473,-33.398 -63.61459,-24.0452 11.99111,13.2066 41.42199,16.0299 57.87314,26.5806 z m -406.83977,-7.8616 c 12.67575,-42.5936 -33.40819,2.3551 0,0 z m 168.04251,-18.6714 c -5.19581,1.5726 -2.66995,10.2086 0.98271,0.9827 z m 289.89791,18.6714 c 36.32374,-1.3851 -12.87655,-41.4108 0,0 z m -536.556796,22.6022 c -4.665603,-29.821 -71.443929,-61.0565 -48.633521,-10.3945 15.343306,15.0807 32.177023,37.2918 48.633521,10.3945 z m 289.897896,-35.3773 c -22.92671,-27.3691 -68.00686,34.3203 -41.97746,27.2233 0.79833,-29.3396 29.23196,-16.4539 41.97746,-27.2233 z m 84.51262,36.3601 c 18.18797,-34.2632 -53.80258,-54.1286 -44.22172,-29.9529 30.0394,-13.9712 30.37436,16.6012 44.22172,29.9529 z m 256.48594,14.7405 c 33.91368,-3.923 59.06098,-75.4433 9.3013,-47.8712 -15.3977,17.4951 -35.7312,30.281 -9.3013,47.8712 z m -294.81143,-3.9308 c 15.83988,-52.0145 -76.00858,-52.4994 -60.9277,0 16.27072,-40.6866 44.35441,-44.5513 60.9277,0 z M 247.1498,1139.2429 c -37.44306,-13.1722 -1.59188,31.7607 -0.76614,3.8307 l 0.5455,-2.7275 z m 260.41676,1.14 c -31.74289,-14.6334 -15.65765,34.9768 0,0.01 z m -282.03626,1.8081 c -37.25358,11.4713 5.42434,39.2175 0,0 z m 300.70765,10.8098 c -23.2621,-34.9519 -19.86331,32.3551 0,1.9654 z m -233.88373,6.879 c -2.21095,-19.499 -27.59051,5.1699 0,0 z m 165.0944,0 c -11.43604,-19.1246 -26.87182,4.9471 0,0 z m -129.71704,-2.9481 c -45.12155,0.2947 -19.28197,33.1019 0,0 z m 102.2013,12.7751 c -30.32472,-33.4287 -39.04956,5.5232 0,0 z m -312.50011,9.827 c 19.00342,-14.4239 85.9543,-7.9873 78.13354,0.9828 -26.05154,-0.053 -52.10541,0.3884 -78.13354,-0.9828 z m 412.736,0 c 21.00283,-13.3387 76.40184,-8.6972 79.93234,0.9828 -26.65129,-0.097 -53.30612,0.4649 -79.93234,-0.9828 z m -289.8979,-3.9308 c 10.62371,6.5855 -4.89699,7.9216 0,0 z m 253.53783,0 c 8.00469,7.4958 -12.3227,7.5404 0,0 z m -138.56138,3.9308 c 27.38899,-4.148 19.09601,3.5501 0,0 z"
     style="fill:#000000;fill-opacity:1" />
</svg>
